<svg xmlns="http://www.w3.org/2000/svg" xmlns:xlink="http://www.w3.org/1999/xlink"><symbol id="icon-arrow" viewBox="0 0 16 16">
<path d="M8 0L6.59 1.41L12.17 7H0V9H12.17L6.59 14.59L8 16L16 8L8 0Z" fill="#5A98D0"/>
</symbol><symbol id="icon-exit" viewBox="0 0 512 512"><style type="text/css">
</style><g class="st2" id="cross"><g class="st0"><line class="st1" x1="112.5" x2="401" y1="112.5" y2="401"/><line class="st1" x1="401" x2="112.5" y1="112.5" y2="401"/></g></g><g id="cross_copy"><path d="M268.064,256.75l138.593-138.593c3.124-3.124,3.124-8.189,0-11.313c-3.125-3.124-8.189-3.124-11.314,0L256.75,245.436   L118.157,106.843c-3.124-3.124-8.189-3.124-11.313,0c-3.125,3.124-3.125,8.189,0,11.313L245.436,256.75L106.843,395.343   c-3.125,3.125-3.125,8.189,0,11.314c1.562,1.562,3.609,2.343,5.657,2.343s4.095-0.781,5.657-2.343L256.75,268.064l138.593,138.593   c1.563,1.562,3.609,2.343,5.657,2.343s4.095-0.781,5.657-2.343c3.124-3.125,3.124-8.189,0-11.314L268.064,256.75z"/></g></symbol><symbol id="icon-footer-logo" viewBox="0 0 48 32">
<circle cx="16" cy="16" r="16" fill="#98C3E8"/>
<circle cx="32" cy="16" r="15" fill="white" stroke="#316099" stroke-width="2"/>
<path d="M38.3 23L33.38 9H29.96L25.06 23H28.04L28.88 20.48H34.46L35.3 23H38.3ZM31.68 12.18L33.6 17.9H29.76L31.68 12.18Z" fill="#316099"/>
</symbol><symbol id="icon-logo" viewBox="0 0 48 32">
<circle cx="16" cy="16" r="16" fill="#316099"/>
<circle cx="32" cy="16" r="15" fill="white" stroke="#316099" stroke-width="2"/>
<path d="M39.3 22L34.38 8H30.96L26.06 22H29.04L29.88 19.48H35.46L36.3 22H39.3ZM32.68 11.18L34.6 16.9H30.76L32.68 11.18Z" fill="#316099"/>
</symbol></svg>